# xmcd
#
# Track frame offsets: 
#        150
#        11388
#        21099
#        32380
#        45388
#        56870
#        68223
#        81946
#        94214
#        107347
#        120764
#        133214
#        143358
#        153673
#        164272
#        176024
#        190035
#        201299
#        213636
#        229481
#        240080
#        251056
#        262536
#        273712
#        285826
#        298241
#
# Disc length: 4115 seconds
#
# Revision: 1
# Processed by: cddbd v1.5.2PL0 Copyright (c) Steve Scherf et al.
# Submitted via: ExactAudioCopyFreeDBPlugin 1.0
#
DISCID=6510111a
DTITLE=Chuck Willis - The Complete Chuck Willis 1951-1957
DYEAR=2009
DGENRE=Rhythm and Blues
TTITLE0=Love Struck
TTITLE1=Lawdy Miss Mary
TTITLE2=One More Break
TTITLE3=I Can Tell
TTITLE4=Search My Heart
TTITLE5=Ring Ding Doo
TTITLE6=Come on Home
TTITLE7=If I Were You
TTITLE8=Two Spoons of Tears
TTITLE9=Charged with Cheatin'
TTITLE10=My Baby's on My Mind
TTITLE11=Take it Like a Man
TTITLE12=Keep a Knokin'
TTITLE13=If I Had a Million
TTITLE14=You Broke My Heart (You Know You Don't Love Me)
TTITLE15=Make Up Your Mind
TTITLE16=You Win This Time
TTITLE17=I Don't Mind If I Do (There Was a Time)
TTITLE18=Blow Mr. Jackson
TTITLE19=Welcome Home
TTITLE20=Peace and Love
TTITLE21=Search My Heart
TTITLE22=Bless Her Heart (Break My Rule)
TTITLE23=Night of Misery
TTITLE24=It's Too Late
TTITLE25=What's Your Name
EXTD=
EXTT0=
EXTT1=
EXTT2=
EXTT3=
EXTT4=
EXTT5=
EXTT6=
EXTT7=
EXTT8=
EXTT9=
EXTT10=
EXTT11=
EXTT12=
EXTT13=
EXTT14=
EXTT15=
EXTT16=
EXTT17=
EXTT18=
EXTT19=
EXTT20=
EXTT21=
EXTT22=
EXTT23=
EXTT24=
EXTT25=
PLAYORDER=
